<?xml version="1.0" encoding="utf-8"?>
<!-- Generator: Adobe Illustrator 21.0.0, SVG Export Plug-In . SVG Version: 6.00 Build 0)  -->
<svg version="1.1" id="Layer_1" xmlns="http://www.w3.org/2000/svg" xmlns:xlink="http://www.w3.org/1999/xlink" x="0px" y="0px"
	 viewBox="0 0 600 600" style="enable-background:new 0 0 600 600;" xml:space="preserve">
<style type="text/css">
	.st0{fill:#AEE646;}
	.st1{fill:#80C139;}
	.st2{fill:#FFFFFF;}
</style>
<g>
	<path class="st0" d="M595,296.5c0,30.3-34.1,54.8-42.9,82.1c-9.2,28.3,3.6,68.1-13.5,91.6c-17.3,23.8-59.2,23.8-83,41.1
		c-23.6,17.1-36.4,57.1-64.7,66.3c-27.3,8.9-61.1-15.6-91.3-15.6c-30.3,0-64,24.5-91.3,15.6c-28.3-9.2-41.2-49.1-64.7-66.3
		c-23.8-17.3-65.7-17.3-83-41.1c-17.1-23.6-4.3-63.3-13.5-91.6C38.1,351.3,4,326.8,4,296.5c0-30.3,34.1-54.8,42.9-82.1
		c9.2-28.3-3.6-68.1,13.5-91.6c17.3-23.8,59.2-23.8,83-41.1c23.6-17.1,36.4-57.1,64.7-66.3C235.5,6.5,269.2,31,299.5,31
		c30.3,0,64-24.5,91.3-15.6c28.3,9.2,41.2,49.1,64.7,66.3c23.8,17.3,65.7,17.3,83,41.1c17.1,23.6,4.3,63.3,13.5,91.6
		C560.9,241.7,595,266.2,595,296.5z"/>
	<path class="st1" d="M566,298.5c0,27.3-30.7,49.4-38.7,74c-8.3,25.5,3.3,61.4-12.2,82.6c-15.6,21.5-53.4,21.5-74.9,37.1
		c-21.2,15.5-32.8,51.5-58.4,59.8c-24.6,8-55.1-14.1-82.4-14.1c-27.3,0-57.7,22.1-82.4,14.1c-25.5-8.3-37.1-44.3-58.4-59.8
		c-21.5-15.6-59.3-15.6-74.9-37.1C68.4,433.9,80,398,71.7,372.5c-8-24.6-38.7-46.7-38.7-74c0-27.3,30.7-49.4,38.7-74
		c8.3-25.5-3.3-61.4,12.2-82.6c15.6-21.5,53.4-21.5,74.9-37.1C180,89.3,191.6,53.3,217.1,45c24.6-8,55.1,14.1,82.4,14.1
		c27.3,0,57.7-22.1,82.4-14.1c25.5,8.3,37.1,44.3,58.4,59.8c21.5,15.6,59.3,15.6,74.9,37.1c15.5,21.2,3.9,57.1,12.2,82.6
		C535.3,249.1,566,271.2,566,298.5z"/>
	<path class="st2" d="M254.8,421.7L148.1,315c-2-2-2-5.1,0-7.1l35.4-35.4c2-2,5.1-2,7.1,0l106.7,106.7c2,2,2,5.1,0,7.1l-35.4,35.4
		C259.9,423.7,256.7,423.7,254.8,421.7z"/>
	<path class="st2" d="M445.6,239.6L262.7,422.5c-2,2-5.1,2-7.1,0l-35.4-35.4c-2-2-2-5.1,0-7.1l182.9-182.9c2-2,5.1-2,7.1,0
		l35.4,35.4C447.5,234.5,447.5,237.7,445.6,239.6z"/>
</g>
</svg>
